<?xml version="1.0" encoding="UTF-8" standalone="no"?>
<svg
   xmlns:dc="http://purl.org/dc/elements/1.1/"
   xmlns:cc="http://creativecommons.org/ns#"
   xmlns:rdf="http://www.w3.org/1999/02/22-rdf-syntax-ns#"
   xmlns:svg="http://www.w3.org/2000/svg"
   xmlns="http://www.w3.org/2000/svg"
   xmlns:sodipodi="http://sodipodi.sourceforge.net/DTD/sodipodi-0.dtd"
   xmlns:inkscape="http://www.inkscape.org/namespaces/inkscape"
   viewBox="0.00 0.00 1600.00 700.00"
   version="1.1"
   id="svg2592"
   sodipodi:docname="trpl04-05.svg"
   inkscape:version="1.0.2 (e86c8708, 2021-01-15)">
  <metadata
     id="metadata2598">
    <rdf:RDF>
      <cc:Work
         rdf:about="">
        <dc:format>image/svg+xml</dc:format>
        <dc:type
           rdf:resource="http://purl.org/dc/dcmitype/StillImage" />
      </cc:Work>
    </rdf:RDF>
  </metadata>
  <defs
     id="defs2596" />
  <sodipodi:namedview
     pagecolor="#ffffff"
     bordercolor="#666666"
     borderopacity="1"
     objecttolerance="10"
     gridtolerance="10"
     guidetolerance="10"
     inkscape:pageopacity="0"
     inkscape:pageshadow="2"
     inkscape:window-width="1792"
     inkscape:window-height="982"
     id="namedview2594"
     showgrid="false"
     inkscape:zoom="0.53640881"
     inkscape:cx="710.79848"
     inkscape:cy="327.9213"
     inkscape:window-x="0"
     inkscape:window-y="25"
     inkscape:window-maximized="1"
     inkscape:current-layer="svg2592" />
  <g
     id="graph0"
     class="graph"
     transform="matrix(4.2209206,0,0,4.2233341,20.612183,681.57363)">
    <title
       id="title2464">%3</title>
    <polygon
       fill="#ffffff"
       stroke="none"
       points="374,-160.5 374,4 -4,4 -4,-160.5 "
       id="polygon2466" />
    <!-- table0 -->
    <g
       id="node1"
       class="node">
      <title
         id="title2468">table0</title>
      <polyline
         fill="none"
         stroke="#000000"
         points="8.5,-131 79.5,-131 "
         id="polyline2470" />
      <text
         text-anchor="start"
         x="40.5"
         y="-137.8"
         font-family="'Times New Roman', serif"
         font-size="14px"
         id="text2472">s</text>
      <polygon
         fill="none"
         stroke="#000000"
         points="45.5,-131 45.5,-110 8.5,-110 8.5,-131 "
         id="polygon2474" />
      <text
         text-anchor="start"
         x="11.5"
         y="-116.8"
         font-family="'Times New Roman', serif"
         font-size="14px"
         id="text2476">nome</text>
      <polygon
         fill="none"
         stroke="#000000"
         points="79.5,-131 79.5,-110 45.5,-110 45.5,-131 "
         id="polygon2478" />
      <text
         text-anchor="start"
         x="48.5"
         y="-116.8"
         font-family="'Times New Roman', serif"
         font-size="14px"
         id="text2480">valor</text>
      <polygon
         fill="none"
         stroke="#000000"
         points="45.5,-110 45.5,-89 8.5,-89 8.5,-110 "
         id="polygon2482" />
      <text
         text-anchor="start"
         x="19"
         y="-95.800003"
         font-family="'Times New Roman', serif"
         font-size="14px"
         id="text2484">ptr</text>
      <polygon
         fill="none"
         stroke="#000000"
         points="79.5,-110 79.5,-89 45.5,-89 45.5,-110 "
         id="polygon2486" />
    </g>
    <!-- table1 -->
    <g
       id="node2"
       class="node">
      <title
         id="title2489">table1</title>
      <polyline
         fill="none"
         stroke="#000000"
         points="131,-131 235,-131 "
         id="polyline2491" />
      <text
         text-anchor="start"
         x="176.5"
         y="-137.8"
         font-family="'Times New Roman', serif"
         font-size="14px"
         id="text2493">s1</text>
      <polygon
         fill="none"
         stroke="#000000"
         points="201,-131 201,-110 131,-110 131,-131 "
         id="polygon2495" />
      <text
         text-anchor="start"
         x="150.5"
         y="-116.8"
         font-family="'Times New Roman', serif"
         font-size="14px"
         id="text2497">nome</text>
      <polygon
         fill="none"
         stroke="#000000"
         points="235,-131 235,-110 201,-110 201,-131 "
         id="polygon2499" />
      <text
         text-anchor="start"
         x="204"
         y="-116.8"
         font-family="'Times New Roman', serif"
         font-size="14px"
         id="text2501">valor</text>
      <polygon
         fill="none"
         stroke="#000000"
         points="201,-110 201,-89 131,-89 131,-110 "
         id="polygon2503" />
      <text
         text-anchor="start"
         x="158"
         y="-95.800003"
         font-family="'Times New Roman', serif"
         font-size="14px"
         id="text2505">ptr</text>
      <polygon
         fill="none"
         stroke="#000000"
         points="235,-110 235,-89 201,-89 201,-110 "
         id="polygon2507" />
      <polygon
         fill="none"
         stroke="#000000"
         points="201,-89 201,-68 131,-68 131,-89 "
         id="polygon2509" />
      <text
         text-anchor="start"
         x="142"
         y="-74.800003"
         font-family="'Times New Roman', serif"
         font-size="14px"
         id="text2511">tamanho</text>
      <polygon
         fill="none"
         stroke="#000000"
         points="235,-89 235,-68 201,-68 201,-89 "
         id="polygon2513" />
      <text
         text-anchor="start"
         x="214.5"
         y="-74.800003"
         font-family="'Times New Roman', serif"
         font-size="14px"
         id="text2515">5</text>
      <polygon
         fill="none"
         stroke="#000000"
         points="201,-68 201,-47 131,-47 131,-68 "
         id="polygon2517" />
      <text
         text-anchor="start"
         x="134"
         y="-53.799999"
         font-family="'Times New Roman', serif"
         font-size="14px"
         id="text2519">capacidade</text>
      <polygon
         fill="none"
         stroke="#000000"
         points="235,-68 235,-47 201,-47 201,-68 "
         id="polygon2521" />
      <text
         text-anchor="start"
         x="214.5"
         y="-53.799999"
         font-family="'Times New Roman', serif"
         font-size="14px"
         id="text2523">5</text>
    </g>
    <!-- table0&#45;&gt;table1 -->
    <g
       id="edge2"
       class="edge">
      <title
         id="title2526">table0:borrower:c-&gt;table1:borrowee</title>
      <path
         fill="none"
         stroke="#000000"
         d="m 63.5,-99 c 0,0 29.0483,0 56.236,0"
         id="path2528" />
      <polygon
         fill="#000000"
         stroke="#000000"
         points="120,-95.5001 120,-102.5 130,-99 "
         id="polygon2530" />
    </g>
    <!-- table2 -->
    <g
       id="node3"
       class="node">
      <title
         id="title2533">table2</title>
      <polygon
         fill="none"
         stroke="#000000"
         points="328.5,-130 328.5,-109 287.5,-109 287.5,-130 "
         id="polygon2535" />
      <text
         text-anchor="start"
         x="290.5"
         y="-115.8"
         font-family="'Times New Roman', serif"
         font-size="14px"
         id="text2537">índice</text>
      <polygon
         fill="none"
         stroke="#000000"
         points="362.5,-130 362.5,-109 328.5,-109 328.5,-130 "
         id="polygon2539" />
      <text
         text-anchor="start"
         x="331.5"
         y="-115.8"
         font-family="'Times New Roman', serif"
         font-size="14px"
         id="text2541">valor</text>
      <polygon
         fill="none"
         stroke="#000000"
         points="328.5,-109 328.5,-88 287.5,-88 287.5,-109 "
         id="polygon2543" />
      <text
         text-anchor="start"
         x="304.5"
         y="-94.800003"
         font-family="'Times New Roman', serif"
         font-size="14px"
         id="text2545">0</text>
      <polygon
         fill="none"
         stroke="#000000"
         points="362.5,-109 362.5,-88 328.5,-88 328.5,-109 "
         id="polygon2547" />
      <text
         text-anchor="start"
         x="343.5"
         y="-94.800003"
         font-family="'Times New Roman', serif"
         font-size="14px"
         id="text2549">t</text>
      <polygon
         fill="none"
         stroke="#000000"
         points="328.5,-88 328.5,-67 287.5,-67 287.5,-88 "
         id="polygon2551" />
      <text
         text-anchor="start"
         x="304.5"
         y="-73.800003"
         font-family="'Times New Roman', serif"
         font-size="14px"
         id="text2553">1</text>
      <polygon
         fill="none"
         stroke="#000000"
         points="362.5,-88 362.5,-67 328.5,-67 328.5,-88 "
         id="polygon2555" />
      <text
         text-anchor="start"
         x="342"
         y="-73.800003"
         font-family="'Times New Roman', serif"
         font-size="14px"
         id="text2557">e</text>
      <polygon
         fill="none"
         stroke="#000000"
         points="328.5,-67 328.5,-46 287.5,-46 287.5,-67 "
         id="polygon2559" />
      <text
         text-anchor="start"
         x="304.5"
         y="-52.799999"
         font-family="'Times New Roman', serif"
         font-size="14px"
         id="text2561">2</text>
      <polygon
         fill="none"
         stroke="#000000"
         points="362.5,-67 362.5,-46 328.5,-46 328.5,-67 "
         id="polygon2563" />
      <text
         text-anchor="start"
         x="342"
         y="-52.799999"
         font-family="'Times New Roman', serif"
         font-size="14px"
         id="text2565">x</text>
      <polygon
         fill="none"
         stroke="#000000"
         points="328.5,-46 328.5,-25 287.5,-25 287.5,-46 "
         id="polygon2567" />
      <text
         text-anchor="start"
         x="304.5"
         y="-31.799999"
         font-family="'Times New Roman', serif"
         font-size="14px"
         id="text2569">3</text>
      <polygon
         fill="none"
         stroke="#000000"
         points="362.5,-46 362.5,-25 328.5,-25 328.5,-46 "
         id="polygon2571" />
      <text
         text-anchor="start"
         x="343.5"
         y="-31.799999"
         font-family="'Times New Roman', serif"
         font-size="14px"
         id="text2573">t</text>
      <polygon
         fill="none"
         stroke="#000000"
         points="328.5,-25 328.5,-4 287.5,-4 287.5,-25 "
         id="polygon2575" />
      <text
         text-anchor="start"
         x="304.5"
         y="-10.8"
         font-family="'Times New Roman', serif"
         font-size="14px"
         id="text2577">4</text>
      <polygon
         fill="none"
         stroke="#000000"
         points="362.5,-25 362.5,-4 328.5,-4 328.5,-25 "
         id="polygon2579" />
      <text
         text-anchor="start"
         x="341.5"
         y="-10.8"
         font-family="'Times New Roman', serif"
         font-size="14px"
         id="text2581">o</text>
    </g>
    <!-- table1&#45;&gt;table2 -->
    <g
       id="edge1"
       class="edge">
      <title
         id="title2584">table1:pointer:c-&gt;table2:pointee</title>
      <path
         fill="none"
         stroke="#000000"
         d="m 219,-99 c 0,0 29.745,0 57.446,0"
         id="path2586" />
      <polygon
         fill="#000000"
         stroke="#000000"
         points="276.5,-95.5001 276.5,-102.5 286.5,-99 "
         id="polygon2588" />
    </g>
  </g>
</svg>
