<?xml version="1.0" encoding="UTF-8" standalone="no"?>
<svg
   xmlns:dc="http://purl.org/dc/elements/1.1/"
   xmlns:cc="http://creativecommons.org/ns#"
   xmlns:rdf="http://www.w3.org/1999/02/22-rdf-syntax-ns#"
   xmlns:svg="http://www.w3.org/2000/svg"
   xmlns="http://www.w3.org/2000/svg"
   xmlns:sodipodi="http://sodipodi.sourceforge.net/DTD/sodipodi-0.dtd"
   xmlns:inkscape="http://www.inkscape.org/namespaces/inkscape"
   viewBox="0.00 0.00 1000.00 1300.00"
   version="1.1"
   id="svg3345"
   sodipodi:docname="trpl04-06.svg"
   inkscape:version="1.0.2 (e86c8708, 2021-01-15)">
  <metadata
     id="metadata3351">
    <rdf:RDF>
      <cc:Work
         rdf:about="">
        <dc:format>image/svg+xml</dc:format>
        <dc:type
           rdf:resource="http://purl.org/dc/dcmitype/StillImage" />
      </cc:Work>
    </rdf:RDF>
  </metadata>
  <defs
     id="defs3349" />
  <sodipodi:namedview
     pagecolor="#ffffff"
     bordercolor="#666666"
     borderopacity="1"
     objecttolerance="10"
     gridtolerance="10"
     guidetolerance="10"
     inkscape:pageopacity="0"
     inkscape:pageshadow="2"
     inkscape:window-width="1792"
     inkscape:window-height="982"
     id="namedview3347"
     showgrid="false"
     inkscape:zoom="0.56538462"
     inkscape:cx="500"
     inkscape:cy="650"
     inkscape:window-x="0"
     inkscape:window-y="25"
     inkscape:window-maximized="1"
     inkscape:current-layer="svg3345" />
  <g
     id="graph0"
     class="graph"
     transform="matrix(3.8961618,0,0,4.1062014,20.890769,1189.9453)">
    <title
       id="title3161">%3</title>
    <polygon
       fill="#ffffff"
       stroke="none"
       points="251,-288.5 251,4 -4,4 -4,-288.5 "
       id="polygon3163" />
    <!-- table0 -->
    <g
       id="node1"
       class="node">
      <title
         id="title3165">table0</title>
      <polyline
         fill="none"
         stroke="#000000"
         points="16,-128 104,-128 "
         id="polyline3167" />
      <text
         text-anchor="start"
         x="44"
         y="-134.8"
         font-family="'Times New Roman', serif"
         font-size="14px"
         id="text3169">longo</text>
      <polygon
         fill="none"
         stroke="#000000"
         points="70,-128 70,-107 16,-107 16,-128 "
         id="polygon3171" />
      <text
         text-anchor="start"
         x="27.5"
         y="-113.8"
         font-family="'Times New Roman', serif"
         font-size="14px"
         id="text3173">nome</text>
      <polygon
         fill="none"
         stroke="#000000"
         points="104,-128 104,-107 70,-107 70,-128 "
         id="polygon3175" />
      <text
         text-anchor="start"
         x="73"
         y="-113.8"
         font-family="'Times New Roman', serif"
         font-size="14px"
         id="text3177">valor</text>
      <polygon
         fill="none"
         stroke="#000000"
         points="70,-107 70,-86 16,-86 16,-107 "
         id="polygon3179" />
      <text
         text-anchor="start"
         x="35"
         y="-92.800003"
         font-family="'Times New Roman', serif"
         font-size="14px"
         id="text3181">ptr</text>
      <polygon
         fill="none"
         stroke="#000000"
         points="104,-107 104,-86 70,-86 70,-107 "
         id="polygon3183" />
      <polygon
         fill="none"
         stroke="#000000"
         points="70,-86 70,-65 16,-65 16,-86 "
         id="polygon3185" />
      <text
         text-anchor="start"
         x="19"
         y="-71.800003"
         font-family="'Times New Roman', serif"
         font-size="14px"
         id="text3187">tamanho</text>
      <polygon
         fill="none"
         stroke="#000000"
         points="104,-86 104,-65 70,-65 70,-86 "
         id="polygon3189" />
      <text
         text-anchor="start"
         x="83.5"
         y="-71.800003"
         font-family="'Times New Roman', serif"
         font-size="14px"
         id="text3191">5</text>
    </g>
    <!-- table4 -->
    <g
       id="node3"
       class="node">
      <title
         id="title3194">table4</title>
      <polygon
         fill="none"
         stroke="#000000"
         points="205.5,-256 205.5,-235 164.5,-235 164.5,-256 "
         id="polygon3196" />
      <text
         text-anchor="start"
         x="167.5"
         y="-241.8"
         font-family="'Times New Roman', serif"
         font-size="14px"
         id="text3198">índice</text>
      <polygon
         fill="none"
         stroke="#000000"
         points="239.5,-256 239.5,-235 205.5,-235 205.5,-256 "
         id="polygon3200" />
      <text
         text-anchor="start"
         x="208.5"
         y="-241.8"
         font-family="'Times New Roman', serif"
         font-size="14px"
         id="text3202">valor</text>
      <polygon
         fill="none"
         stroke="#000000"
         points="205.5,-235 205.5,-214 164.5,-214 164.5,-235 "
         id="polygon3204" />
      <text
         text-anchor="start"
         x="181.5"
         y="-220.8"
         font-family="'Times New Roman', serif"
         font-size="14px"
         id="text3206">0</text>
      <polygon
         fill="none"
         stroke="#000000"
         points="239.5,-235 239.5,-214 205.5,-214 205.5,-235 "
         id="polygon3208" />
      <text
         text-anchor="start"
         x="220.5"
         y="-220.8"
         font-family="'Times New Roman', serif"
         font-size="14px"
         id="text3210">t</text>
      <polygon
         fill="none"
         stroke="#000000"
         points="205.5,-214 205.5,-193 164.5,-193 164.5,-214 "
         id="polygon3212" />
      <text
         text-anchor="start"
         x="181.5"
         y="-199.8"
         font-family="'Times New Roman', serif"
         font-size="14px"
         id="text3214">1</text>
      <polygon
         fill="none"
         stroke="#000000"
         points="239.5,-214 239.5,-193 205.5,-193 205.5,-214 "
         id="polygon3216" />
      <text
         text-anchor="start"
         x="219"
         y="-199.8"
         font-family="'Times New Roman', serif"
         font-size="14px"
         id="text3218">e</text>
      <polygon
         fill="none"
         stroke="#000000"
         points="205.5,-193 205.5,-172 164.5,-172 164.5,-193 "
         id="polygon3220" />
      <text
         text-anchor="start"
         x="181.5"
         y="-178.8"
         font-family="'Times New Roman', serif"
         font-size="14px"
         id="text3222">2</text>
      <polygon
         fill="none"
         stroke="#000000"
         points="239.5,-193 239.5,-172 205.5,-172 205.5,-193 "
         id="polygon3224" />
      <text
         text-anchor="start"
         x="219"
         y="-178.8"
         font-family="'Times New Roman', serif"
         font-size="14px"
         id="text3226">x</text>
      <polygon
         fill="none"
         stroke="#000000"
         points="205.5,-172 205.5,-151 164.5,-151 164.5,-172 "
         id="polygon3228" />
      <text
         text-anchor="start"
         x="181.5"
         y="-157.8"
         font-family="'Times New Roman', serif"
         font-size="14px"
         id="text3230">3</text>
      <polygon
         fill="none"
         stroke="#000000"
         points="239.5,-172 239.5,-151 205.5,-151 205.5,-172 "
         id="polygon3232" />
      <text
         text-anchor="start"
         x="220.5"
         y="-157.8"
         font-family="'Times New Roman', serif"
         font-size="14px"
         id="text3234">t</text>
      <polygon
         fill="none"
         stroke="#000000"
         points="205.5,-151 205.5,-130 164.5,-130 164.5,-151 "
         id="polygon3236" />
      <text
         text-anchor="start"
         x="181.5"
         y="-136.8"
         font-family="'Times New Roman', serif"
         font-size="14px"
         id="text3238">4</text>
      <polygon
         fill="none"
         stroke="#000000"
         points="239.5,-151 239.5,-130 205.5,-130 205.5,-151 "
         id="polygon3240" />
      <text
         text-anchor="start"
         x="218.5"
         y="-136.8"
         font-family="'Times New Roman', serif"
         font-size="14px"
         id="text3242">o</text>
      <polygon
         fill="none"
         stroke="#000000"
         points="205.5,-130 205.5,-109 164.5,-109 164.5,-130 "
         id="polygon3244" />
      <text
         text-anchor="start"
         x="181.5"
         y="-115.8"
         font-family="'Times New Roman', serif"
         font-size="14px"
         id="text3246">5</text>
      <polygon
         fill="none"
         stroke="#000000"
         points="239.5,-130 239.5,-109 205.5,-109 205.5,-130 "
         id="polygon3248" />
      <text
         text-anchor="start"
         x="220.5"
         y="-115.8"
         font-family="'Times New Roman', serif"
         font-size="14px"
         id="text3250" />
      <polygon
         fill="none"
         stroke="#000000"
         points="205.5,-109 205.5,-88 164.5,-88 164.5,-109 "
         id="polygon3252" />
      <text
         text-anchor="start"
         x="181.5"
         y="-94.800003"
         font-family="'Times New Roman', serif"
         font-size="14px"
         id="text3254">6</text>
      <polygon
         fill="none"
         stroke="#000000"
         points="239.5,-109 239.5,-88 205.5,-88 205.5,-109 "
         id="polygon3256" />
      <text
         text-anchor="start"
         x="220.5"
         y="-94.800003"
         font-family="'Times New Roman', serif"
         font-size="14px"
         id="text3258">l</text>
      <polygon
         fill="none"
         stroke="#000000"
         points="205.5,-88 205.5,-67 164.5,-67 164.5,-88 "
         id="polygon3260" />
      <text
         text-anchor="start"
         x="181.5"
         y="-73.800003"
         font-family="'Times New Roman', serif"
         font-size="14px"
         id="text3262">7</text>
      <polygon
         fill="none"
         stroke="#000000"
         points="239.5,-88 239.5,-67 205.5,-67 205.5,-88 "
         id="polygon3264" />
      <text
         text-anchor="start"
         x="218.5"
         y="-73.800003"
         font-family="'Times New Roman', serif"
         font-size="14px"
         id="text3266">o</text>
      <polygon
         fill="none"
         stroke="#000000"
         points="205.5,-67 205.5,-46 164.5,-46 164.5,-67 "
         id="polygon3268" />
      <text
         text-anchor="start"
         x="181.5"
         y="-52.799999"
         font-family="'Times New Roman', serif"
         font-size="14px"
         id="text3270">8</text>
      <polygon
         fill="none"
         stroke="#000000"
         points="239.5,-67 239.5,-46 205.5,-46 205.5,-67 "
         id="polygon3272" />
      <text
         text-anchor="start"
         x="219"
         y="-52.799999"
         font-family="'Times New Roman', serif"
         font-size="14px"
         id="text3274">n</text>
      <polygon
         fill="none"
         stroke="#000000"
         points="205.5,-46 205.5,-25 164.5,-25 164.5,-46 "
         id="polygon3276" />
      <text
         text-anchor="start"
         x="181.5"
         y="-31.799999"
         font-family="'Times New Roman', serif"
         font-size="14px"
         id="text3278">9</text>
      <polygon
         fill="none"
         stroke="#000000"
         points="239.5,-46 239.5,-25 205.5,-25 205.5,-46 "
         id="polygon3280" />
      <text
         text-anchor="start"
         x="219"
         y="-31.799999"
         font-family="'Times New Roman', serif"
         font-size="14px"
         id="text3282">g</text>
      <polygon
         fill="none"
         stroke="#000000"
         points="205.5,-25 205.5,-4 164.5,-4 164.5,-25 "
         id="polygon3284" />
      <text
         text-anchor="start"
         x="178"
         y="-10.8"
         font-family="'Times New Roman', serif"
         font-size="14px"
         id="text3286">10</text>
      <polygon
         fill="none"
         stroke="#000000"
         points="239.5,-25 239.5,-4 205.5,-4 205.5,-25 "
         id="polygon3288" />
      <text
         text-anchor="start"
         x="218.5"
         y="-10.8"
         font-family="'Times New Roman', serif"
         font-size="14px"
         id="text3290">o</text>
    </g>
    <!-- table0&#45;&gt;table4 -->
    <g
       id="edge1"
       class="edge">
      <title
         id="title3293">table0:pointer2:c-&gt;table4:pointee2</title>
      <path
         fill="none"
         stroke="#000000"
         d="m 88,-96 c 0,0 34.143,-1.6284 65.473,-1.9465"
         id="path3295" />
      <polygon
         fill="#000000"
         stroke="#000000"
         points="153.519,-94.4466 153.481,-101.446 163.5,-98 "
         id="polygon3297" />
    </g>
    <!-- table3 -->
    <g
       id="node2"
       class="node">
      <title
         id="title3300">table3</title>
      <polyline
         fill="none"
         stroke="#000000"
         points="8,-259 112,-259 "
         id="polyline3302" />
      <text
         text-anchor="start"
         x="56.5"
         y="-265.79999"
         font-family="'Times New Roman', serif"
         font-size="14px"
         id="text3304">s</text>
      <polygon
         fill="none"
         stroke="#000000"
         points="78,-259 78,-238 8,-238 8,-259 "
         id="polygon3306" />
      <text
         text-anchor="start"
         x="27.5"
         y="-244.8"
         font-family="'Times New Roman', serif"
         font-size="14px"
         id="text3308">nome</text>
      <polygon
         fill="none"
         stroke="#000000"
         points="112,-259 112,-238 78,-238 78,-259 "
         id="polygon3310" />
      <text
         text-anchor="start"
         x="81"
         y="-244.8"
         font-family="'Times New Roman', serif"
         font-size="14px"
         id="text3312">valor</text>
      <polygon
         fill="none"
         stroke="#000000"
         points="78,-238 78,-217 8,-217 8,-238 "
         id="polygon3314" />
      <text
         text-anchor="start"
         x="35"
         y="-223.8"
         font-family="'Times New Roman', serif"
         font-size="14px"
         id="text3316">ptr</text>
      <polygon
         fill="none"
         stroke="#000000"
         points="112,-238 112,-217 78,-217 78,-238 "
         id="polygon3318" />
      <polygon
         fill="none"
         stroke="#000000"
         points="78,-217 78,-196 8,-196 8,-217 "
         id="polygon3320" />
      <text
         text-anchor="start"
         x="19"
         y="-202.8"
         font-family="'Times New Roman', serif"
         font-size="14px"
         id="text3322">tamanho</text>
      <polygon
         fill="none"
         stroke="#000000"
         points="112,-217 112,-196 78,-196 78,-217 "
         id="polygon3324" />
      <text
         text-anchor="start"
         x="88"
         y="-202.8"
         font-family="'Times New Roman', serif"
         font-size="14px"
         id="text3326">11</text>
      <polygon
         fill="none"
         stroke="#000000"
         points="78,-196 78,-175 8,-175 8,-196 "
         id="polygon3328" />
      <text
         text-anchor="start"
         x="11"
         y="-181.8"
         font-family="'Times New Roman', serif"
         font-size="14px"
         id="text3330">capacidade</text>
      <polygon
         fill="none"
         stroke="#000000"
         points="112,-196 112,-175 78,-175 78,-196 "
         id="polygon3332" />
      <text
         text-anchor="start"
         x="88"
         y="-181.8"
         font-family="'Times New Roman', serif"
         font-size="14px"
         id="text3334">11</text>
    </g>
    <!-- table3&#45;&gt;table4 -->
    <g
       id="edge2"
       class="edge">
      <title
         id="title3337">table3:pointer:c-&gt;table4:pointee</title>
      <path
         fill="none"
         stroke="#000000"
         d="m 96,-227 c 0,0 29.735,1.586 57.443,1.933"
         id="path3339" />
      <polygon
         fill="#000000"
         stroke="#000000"
         points="153.477,-221.566 153.523,-228.566 163.5,-225 "
         id="polygon3341" />
    </g>
  </g>
</svg>
