<?xml version="1.0" encoding="UTF-8" standalone="no"?>
<svg
   xmlns:dc="http://purl.org/dc/elements/1.1/"
   xmlns:cc="http://creativecommons.org/ns#"
   xmlns:rdf="http://www.w3.org/1999/02/22-rdf-syntax-ns#"
   xmlns:svg="http://www.w3.org/2000/svg"
   xmlns="http://www.w3.org/2000/svg"
   xmlns:sodipodi="http://sodipodi.sourceforge.net/DTD/sodipodi-0.dtd"
   xmlns:inkscape="http://www.inkscape.org/namespaces/inkscape"
   viewBox="0.00 0.00 1000.00 700.00"
   version="1.1"
   id="svg933"
   sodipodi:docname="trpl04-01.svg"
   inkscape:version="1.0.2 (e86c8708, 2021-01-15)">
  <metadata
     id="metadata939">
    <rdf:RDF>
      <cc:Work
         rdf:about="">
        <dc:format>image/svg+xml</dc:format>
        <dc:type
           rdf:resource="http://purl.org/dc/dcmitype/StillImage" />
      </cc:Work>
    </rdf:RDF>
  </metadata>
  <defs
     id="defs937" />
  <sodipodi:namedview
     pagecolor="#ffffff"
     bordercolor="#666666"
     borderopacity="1"
     objecttolerance="10"
     gridtolerance="10"
     guidetolerance="10"
     inkscape:pageopacity="0"
     inkscape:pageshadow="2"
     inkscape:window-width="1792"
     inkscape:window-height="982"
     id="namedview935"
     showgrid="false"
     inkscape:zoom="0.886"
     inkscape:cx="423.25056"
     inkscape:cy="414.33409"
     inkscape:window-x="0"
     inkscape:window-y="25"
     inkscape:window-maximized="1"
     inkscape:current-layer="svg933" />
  <g
     id="graph0"
     class="graph"
     transform="matrix(3.9188056,0,0,4.1598087,17.932558,677.19332)">
    <title
       id="title833">%3</title>
    <polygon
       fill="#ffffff"
       stroke="none"
       points="-4,4 -4,-160.5 251,-160.5 251,4 "
       id="polygon835" />
    <!-- table0 -->
    <g
       id="node1"
       class="node">
      <title
         id="title837">table0</title>
      <polyline
         fill="none"
         stroke="#000000"
         points="8,-131 112,-131 "
         id="polyline839" />
      <text
         text-anchor="start"
         x="53.5"
         y="-137.8"
         font-family="'Times New Roman', serif"
         font-size="14px"
         id="text841">s1</text>
      <polygon
         fill="none"
         stroke="#000000"
         points="8,-110 8,-131 78,-131 78,-110 "
         id="polygon843" />
      <text
         text-anchor="start"
         x="27.5"
         y="-116.8"
         font-family="'Times New Roman', serif"
         font-size="14px"
         id="text845">nome</text>
      <polygon
         fill="none"
         stroke="#000000"
         points="78,-110 78,-131 112,-131 112,-110 "
         id="polygon847" />
      <text
         text-anchor="start"
         x="81"
         y="-116.8"
         font-family="'Times New Roman', serif"
         font-size="14px"
         id="text849">valor</text>
      <polygon
         fill="none"
         stroke="#000000"
         points="8,-89 8,-110 78,-110 78,-89 "
         id="polygon851" />
      <text
         text-anchor="start"
         x="35"
         y="-95.800003"
         font-family="'Times New Roman', serif"
         font-size="14px"
         id="text853">ptr</text>
      <polygon
         fill="none"
         stroke="#000000"
         points="78,-89 78,-110 112,-110 112,-89 "
         id="polygon855" />
      <polygon
         fill="none"
         stroke="#000000"
         points="8,-68 8,-89 78,-89 78,-68 "
         id="polygon857" />
      <text
         text-anchor="start"
         x="19"
         y="-74.800003"
         font-family="'Times New Roman', serif"
         font-size="14px"
         id="text859">tamanho</text>
      <polygon
         fill="none"
         stroke="#000000"
         points="78,-68 78,-89 112,-89 112,-68 "
         id="polygon861" />
      <text
         text-anchor="start"
         x="91.5"
         y="-74.800003"
         font-family="'Times New Roman', serif"
         font-size="14px"
         id="text863">5</text>
      <polygon
         fill="none"
         stroke="#000000"
         points="8,-47 8,-68 78,-68 78,-47 "
         id="polygon865" />
      <text
         text-anchor="start"
         x="11"
         y="-53.799999"
         font-family="'Times New Roman', serif"
         font-size="14px"
         id="text867">capacidade</text>
      <polygon
         fill="none"
         stroke="#000000"
         points="78,-47 78,-68 112,-68 112,-47 "
         id="polygon869" />
      <text
         text-anchor="start"
         x="91.5"
         y="-53.799999"
         font-family="'Times New Roman', serif"
         font-size="14px"
         id="text871">5</text>
    </g>
    <!-- table1 -->
    <g
       id="node2"
       class="node">
      <title
         id="title874">table1</title>
      <polygon
         fill="none"
         stroke="#000000"
         points="164.5,-109 164.5,-130 205.5,-130 205.5,-109 "
         id="polygon876" />
      <text
         text-anchor="start"
         x="167.5"
         y="-115.8"
         font-family="'Times New Roman', serif"
         font-size="14px"
         id="text878">índice</text>
      <polygon
         fill="none"
         stroke="#000000"
         points="205.5,-109 205.5,-130 239.5,-130 239.5,-109 "
         id="polygon880" />
      <text
         text-anchor="start"
         x="208.5"
         y="-115.8"
         font-family="'Times New Roman', serif"
         font-size="14px"
         id="text882">valor</text>
      <polygon
         fill="none"
         stroke="#000000"
         points="164.5,-88 164.5,-109 205.5,-109 205.5,-88 "
         id="polygon884" />
      <text
         text-anchor="start"
         x="181.5"
         y="-94.800003"
         font-family="'Times New Roman', serif"
         font-size="14px"
         id="text886">0</text>
      <polygon
         fill="none"
         stroke="#000000"
         points="205.5,-88 205.5,-109 239.5,-109 239.5,-88 "
         id="polygon888" />
      <text
         text-anchor="start"
         x="220.5"
         y="-94.800003"
         font-family="'Times New Roman', serif"
         font-size="14px"
         id="text890">t</text>
      <polygon
         fill="none"
         stroke="#000000"
         points="164.5,-67 164.5,-88 205.5,-88 205.5,-67 "
         id="polygon892" />
      <text
         text-anchor="start"
         x="181.5"
         y="-73.800003"
         font-family="'Times New Roman', serif"
         font-size="14px"
         id="text894">1</text>
      <polygon
         fill="none"
         stroke="#000000"
         points="205.5,-67 205.5,-88 239.5,-88 239.5,-67 "
         id="polygon896" />
      <text
         text-anchor="start"
         x="219"
         y="-73.800003"
         font-family="'Times New Roman', serif"
         font-size="14px"
         id="text898">e</text>
      <polygon
         fill="none"
         stroke="#000000"
         points="164.5,-46 164.5,-67 205.5,-67 205.5,-46 "
         id="polygon900" />
      <text
         text-anchor="start"
         x="181.5"
         y="-52.799999"
         font-family="'Times New Roman', serif"
         font-size="14px"
         id="text902">2</text>
      <polygon
         fill="none"
         stroke="#000000"
         points="205.5,-46 205.5,-67 239.5,-67 239.5,-46 "
         id="polygon904" />
      <text
         text-anchor="start"
         x="219"
         y="-52.799999"
         font-family="'Times New Roman', serif"
         font-size="14px"
         id="text906">x</text>
      <polygon
         fill="none"
         stroke="#000000"
         points="164.5,-25 164.5,-46 205.5,-46 205.5,-25 "
         id="polygon908" />
      <text
         text-anchor="start"
         x="181.5"
         y="-31.799999"
         font-family="'Times New Roman', serif"
         font-size="14px"
         id="text910">3</text>
      <polygon
         fill="none"
         stroke="#000000"
         points="205.5,-25 205.5,-46 239.5,-46 239.5,-25 "
         id="polygon912" />
      <text
         text-anchor="start"
         x="220.5"
         y="-31.799999"
         font-family="'Times New Roman', serif"
         font-size="14px"
         id="text914">t</text>
      <polygon
         fill="none"
         stroke="#000000"
         points="164.5,-4 164.5,-25 205.5,-25 205.5,-4 "
         id="polygon916" />
      <text
         text-anchor="start"
         x="181.5"
         y="-10.8"
         font-family="'Times New Roman', serif"
         font-size="14px"
         id="text918">4</text>
      <polygon
         fill="none"
         stroke="#000000"
         points="205.5,-4 205.5,-25 239.5,-25 239.5,-4 "
         id="polygon920" />
      <text
         text-anchor="start"
         x="218.5"
         y="-10.8"
         font-family="'Times New Roman', serif"
         font-size="14px"
         id="text922">o</text>
    </g>
    <!-- table0&#45;&gt;table1 -->
    <g
       id="edge1"
       class="edge">
      <title
         id="title925">table0:pointer:c-&gt;table1:pointee</title>
      <path
         fill="none"
         stroke="#000000"
         d="m 96,-99 c 0,0 29.745,0 57.446,0"
         id="path927" />
      <polygon
         fill="#000000"
         stroke="#000000"
         points="153.5,-95.5001 153.5,-102.5 163.5,-99 "
         id="polygon929" />
    </g>
  </g>
</svg>
