<?xml version="1.0" encoding="UTF-8" standalone="no"?>
<svg
   xmlns:dc="http://purl.org/dc/elements/1.1/"
   xmlns:cc="http://creativecommons.org/ns#"
   xmlns:rdf="http://www.w3.org/1999/02/22-rdf-syntax-ns#"
   xmlns:svg="http://www.w3.org/2000/svg"
   xmlns="http://www.w3.org/2000/svg"
   xmlns:sodipodi="http://sodipodi.sourceforge.net/DTD/sodipodi-0.dtd"
   xmlns:inkscape="http://www.inkscape.org/namespaces/inkscape"
   viewBox="0.00 0.00 1000.00 1300.00"
   version="1.1"
   id="svg1180"
   sodipodi:docname="trpl04-03.svg"
   inkscape:version="1.0.2 (e86c8708, 2021-01-15)">
  <metadata
     id="metadata1186">
    <rdf:RDF>
      <cc:Work
         rdf:about="">
        <dc:format>image/svg+xml</dc:format>
        <dc:type
           rdf:resource="http://purl.org/dc/dcmitype/StillImage" />
      </cc:Work>
    </rdf:RDF>
  </metadata>
  <defs
     id="defs1184" />
  <sodipodi:namedview
     pagecolor="#ffffff"
     bordercolor="#666666"
     borderopacity="1"
     objecttolerance="10"
     gridtolerance="10"
     guidetolerance="10"
     inkscape:pageopacity="0"
     inkscape:pageshadow="2"
     inkscape:window-width="1792"
     inkscape:window-height="982"
     id="namedview1182"
     showgrid="false"
     inkscape:zoom="0.56538462"
     inkscape:cx="500"
     inkscape:cy="650"
     inkscape:window-x="0"
     inkscape:window-y="25"
     inkscape:window-maximized="1"
     inkscape:current-layer="svg1180" />
  <g
     id="graph0"
     class="graph"
     transform="matrix(3.9169701,0,0,4.0604917,17.436588,1275.9785)">
    <title
       id="title985">%3</title>
    <polygon
       fill="#ffffff"
       stroke="none"
       points="-4,4 -4,-312.5 251,-312.5 251,4 "
       id="polygon987" />
    <!-- table0 -->
    <g
       id="node1"
       class="node">
      <title
         id="title989">table0</title>
      <polyline
         fill="none"
         stroke="#000000"
         points="8,-131 112,-131 "
         id="polyline991" />
      <text
         text-anchor="start"
         x="53.5"
         y="-137.8"
         font-family="'Times New Roman', serif"
         font-size="14px"
         id="text993">s2</text>
      <polygon
         fill="none"
         stroke="#000000"
         points="8,-110 8,-131 78,-131 78,-110 "
         id="polygon995" />
      <text
         text-anchor="start"
         x="27.5"
         y="-116.8"
         font-family="'Times New Roman', serif"
         font-size="14px"
         id="text997">nome</text>
      <polygon
         fill="none"
         stroke="#000000"
         points="78,-110 78,-131 112,-131 112,-110 "
         id="polygon999" />
      <text
         text-anchor="start"
         x="81"
         y="-116.8"
         font-family="'Times New Roman', serif"
         font-size="14px"
         id="text1001">valor</text>
      <polygon
         fill="none"
         stroke="#000000"
         points="8,-89 8,-110 78,-110 78,-89 "
         id="polygon1003" />
      <text
         text-anchor="start"
         x="35"
         y="-95.800003"
         font-family="'Times New Roman', serif"
         font-size="14px"
         id="text1005">ptr</text>
      <polygon
         fill="none"
         stroke="#000000"
         points="78,-89 78,-110 112,-110 112,-89 "
         id="polygon1007" />
      <polygon
         fill="none"
         stroke="#000000"
         points="8,-68 8,-89 78,-89 78,-68 "
         id="polygon1009" />
      <text
         text-anchor="start"
         x="19"
         y="-74.800003"
         font-family="'Times New Roman', serif"
         font-size="14px"
         id="text1011">tamanho</text>
      <polygon
         fill="none"
         stroke="#000000"
         points="78,-68 78,-89 112,-89 112,-68 "
         id="polygon1013" />
      <text
         text-anchor="start"
         x="91.5"
         y="-74.800003"
         font-family="'Times New Roman', serif"
         font-size="14px"
         id="text1015">5</text>
      <polygon
         fill="none"
         stroke="#000000"
         points="8,-47 8,-68 78,-68 78,-47 "
         id="polygon1017" />
      <text
         text-anchor="start"
         x="11"
         y="-53.799999"
         font-family="'Times New Roman', serif"
         font-size="14px"
         id="text1019">capacidade</text>
      <polygon
         fill="none"
         stroke="#000000"
         points="78,-47 78,-68 112,-68 112,-47 "
         id="polygon1021" />
      <text
         text-anchor="start"
         x="91.5"
         y="-53.799999"
         font-family="'Times New Roman', serif"
         font-size="14px"
         id="text1023">5</text>
    </g>
    <!-- table1 -->
    <g
       id="node2"
       class="node">
      <title
         id="title1026">table1</title>
      <polygon
         fill="none"
         stroke="#000000"
         points="164.5,-109 164.5,-130 205.5,-130 205.5,-109 "
         id="polygon1028" />
      <text
         text-anchor="start"
         x="167.5"
         y="-115.8"
         font-family="'Times New Roman', serif"
         font-size="14px"
         id="text1030">índice</text>
      <polygon
         fill="none"
         stroke="#000000"
         points="205.5,-109 205.5,-130 239.5,-130 239.5,-109 "
         id="polygon1032" />
      <text
         text-anchor="start"
         x="208.5"
         y="-115.8"
         font-family="'Times New Roman', serif"
         font-size="14px"
         id="text1034">valor</text>
      <polygon
         fill="none"
         stroke="#000000"
         points="164.5,-88 164.5,-109 205.5,-109 205.5,-88 "
         id="polygon1036" />
      <text
         text-anchor="start"
         x="181.5"
         y="-94.800003"
         font-family="'Times New Roman', serif"
         font-size="14px"
         id="text1038">0</text>
      <polygon
         fill="none"
         stroke="#000000"
         points="205.5,-88 205.5,-109 239.5,-109 239.5,-88 "
         id="polygon1040" />
      <text
         text-anchor="start"
         x="220.5"
         y="-94.800003"
         font-family="'Times New Roman', serif"
         font-size="14px"
         id="text1042">t</text>
      <polygon
         fill="none"
         stroke="#000000"
         points="164.5,-67 164.5,-88 205.5,-88 205.5,-67 "
         id="polygon1044" />
      <text
         text-anchor="start"
         x="181.5"
         y="-73.800003"
         font-family="'Times New Roman', serif"
         font-size="14px"
         id="text1046">1</text>
      <polygon
         fill="none"
         stroke="#000000"
         points="205.5,-67 205.5,-88 239.5,-88 239.5,-67 "
         id="polygon1048" />
      <text
         text-anchor="start"
         x="219"
         y="-73.800003"
         font-family="'Times New Roman', serif"
         font-size="14px"
         id="text1050">e</text>
      <polygon
         fill="none"
         stroke="#000000"
         points="164.5,-46 164.5,-67 205.5,-67 205.5,-46 "
         id="polygon1052" />
      <text
         text-anchor="start"
         x="181.5"
         y="-52.799999"
         font-family="'Times New Roman', serif"
         font-size="14px"
         id="text1054">2</text>
      <polygon
         fill="none"
         stroke="#000000"
         points="205.5,-46 205.5,-67 239.5,-67 239.5,-46 "
         id="polygon1056" />
      <text
         text-anchor="start"
         x="219"
         y="-52.799999"
         font-family="'Times New Roman', serif"
         font-size="14px"
         id="text1058">x</text>
      <polygon
         fill="none"
         stroke="#000000"
         points="164.5,-25 164.5,-46 205.5,-46 205.5,-25 "
         id="polygon1060" />
      <text
         text-anchor="start"
         x="181.5"
         y="-31.799999"
         font-family="'Times New Roman', serif"
         font-size="14px"
         id="text1062">3</text>
      <polygon
         fill="none"
         stroke="#000000"
         points="205.5,-25 205.5,-46 239.5,-46 239.5,-25 "
         id="polygon1064" />
      <text
         text-anchor="start"
         x="220.5"
         y="-31.799999"
         font-family="'Times New Roman', serif"
         font-size="14px"
         id="text1066">t</text>
      <polygon
         fill="none"
         stroke="#000000"
         points="164.5,-4 164.5,-25 205.5,-25 205.5,-4 "
         id="polygon1068" />
      <text
         text-anchor="start"
         x="181.5"
         y="-10.8"
         font-family="'Times New Roman', serif"
         font-size="14px"
         id="text1070">4</text>
      <polygon
         fill="none"
         stroke="#000000"
         points="205.5,-4 205.5,-25 239.5,-25 239.5,-4 "
         id="polygon1072" />
      <text
         text-anchor="start"
         x="218.5"
         y="-10.8"
         font-family="'Times New Roman', serif"
         font-size="14px"
         id="text1074">o</text>
    </g>
    <!-- table0&#45;&gt;table1 -->
    <g
       id="edge1"
       class="edge">
      <title
         id="title1077">table0:pointer:c-&gt;table1:pointee</title>
      <path
         fill="none"
         stroke="#000000"
         d="m 96,-99 c 0,0 29.745,0 57.446,0"
         id="path1079" />
      <polygon
         fill="#000000"
         stroke="#000000"
         points="163.5,-99 153.5,-95.5001 153.5,-102.5 "
         id="polygon1081" />
    </g>
    <!-- table3 -->
    <g
       id="node3"
       class="node">
      <title
         id="title1084">table3</title>
      <polyline
         fill="none"
         stroke="#000000"
         points="8,-283 112,-283 "
         id="polyline1086" />
      <text
         text-anchor="start"
         x="53.5"
         y="-289.79999"
         font-family="'Times New Roman', serif"
         font-size="14px"
         id="text1088">s1</text>
      <polygon
         fill="none"
         stroke="#000000"
         points="8,-262 8,-283 78,-283 78,-262 "
         id="polygon1090" />
      <text
         text-anchor="start"
         x="27.5"
         y="-268.79999"
         font-family="'Times New Roman', serif"
         font-size="14px"
         id="text1092">nome</text>
      <polygon
         fill="none"
         stroke="#000000"
         points="78,-262 78,-283 112,-283 112,-262 "
         id="polygon1094" />
      <text
         text-anchor="start"
         x="81"
         y="-268.79999"
         font-family="'Times New Roman', serif"
         font-size="14px"
         id="text1096">valor</text>
      <polygon
         fill="none"
         stroke="#000000"
         points="8,-241 8,-262 78,-262 78,-241 "
         id="polygon1098" />
      <text
         text-anchor="start"
         x="35"
         y="-247.8"
         font-family="'Times New Roman', serif"
         font-size="14px"
         id="text1100">ptr</text>
      <polygon
         fill="none"
         stroke="#000000"
         points="78,-241 78,-262 112,-262 112,-241 "
         id="polygon1102" />
      <polygon
         fill="none"
         stroke="#000000"
         points="8,-220 8,-241 78,-241 78,-220 "
         id="polygon1104" />
      <text
         text-anchor="start"
         x="19"
         y="-226.8"
         font-family="'Times New Roman', serif"
         font-size="14px"
         id="text1106">tamanho</text>
      <polygon
         fill="none"
         stroke="#000000"
         points="78,-220 78,-241 112,-241 112,-220 "
         id="polygon1108" />
      <text
         text-anchor="start"
         x="91.5"
         y="-226.8"
         font-family="'Times New Roman', serif"
         font-size="14px"
         id="text1110">5</text>
      <polygon
         fill="none"
         stroke="#000000"
         points="8,-199 8,-220 78,-220 78,-199 "
         id="polygon1112" />
      <text
         text-anchor="start"
         x="11"
         y="-205.8"
         font-family="'Times New Roman', serif"
         font-size="14px"
         id="text1114">capacidade</text>
      <polygon
         fill="none"
         stroke="#000000"
         points="78,-199 78,-220 112,-220 112,-199 "
         id="polygon1116" />
      <text
         text-anchor="start"
         x="91.5"
         y="-205.8"
         font-family="'Times New Roman', serif"
         font-size="14px"
         id="text1118">5</text>
    </g>
    <!-- table4 -->
    <g
       id="node4"
       class="node">
      <title
         id="title1121">table4</title>
      <polygon
         fill="none"
         stroke="#000000"
         points="164.5,-261 164.5,-282 205.5,-282 205.5,-261 "
         id="polygon1123" />
      <text
         text-anchor="start"
         x="167.5"
         y="-267.79999"
         font-family="'Times New Roman', serif"
         font-size="14px"
         id="text1125">índice</text>
      <polygon
         fill="none"
         stroke="#000000"
         points="205.5,-261 205.5,-282 239.5,-282 239.5,-261 "
         id="polygon1127" />
      <text
         text-anchor="start"
         x="208.5"
         y="-267.79999"
         font-family="'Times New Roman', serif"
         font-size="14px"
         id="text1129">valor</text>
      <polygon
         fill="none"
         stroke="#000000"
         points="164.5,-240 164.5,-261 205.5,-261 205.5,-240 "
         id="polygon1131" />
      <text
         text-anchor="start"
         x="181.5"
         y="-246.8"
         font-family="'Times New Roman', serif"
         font-size="14px"
         id="text1133">0</text>
      <polygon
         fill="none"
         stroke="#000000"
         points="205.5,-240 205.5,-261 239.5,-261 239.5,-240 "
         id="polygon1135" />
      <text
         text-anchor="start"
         x="220.5"
         y="-246.8"
         font-family="'Times New Roman', serif"
         font-size="14px"
         id="text1137">t</text>
      <polygon
         fill="none"
         stroke="#000000"
         points="164.5,-219 164.5,-240 205.5,-240 205.5,-219 "
         id="polygon1139" />
      <text
         text-anchor="start"
         x="181.5"
         y="-225.8"
         font-family="'Times New Roman', serif"
         font-size="14px"
         id="text1141">1</text>
      <polygon
         fill="none"
         stroke="#000000"
         points="205.5,-219 205.5,-240 239.5,-240 239.5,-219 "
         id="polygon1143" />
      <text
         text-anchor="start"
         x="219"
         y="-225.8"
         font-family="'Times New Roman', serif"
         font-size="14px"
         id="text1145">e</text>
      <polygon
         fill="none"
         stroke="#000000"
         points="164.5,-198 164.5,-219 205.5,-219 205.5,-198 "
         id="polygon1147" />
      <text
         text-anchor="start"
         x="181.5"
         y="-204.8"
         font-family="'Times New Roman', serif"
         font-size="14px"
         id="text1149">2</text>
      <polygon
         fill="none"
         stroke="#000000"
         points="205.5,-198 205.5,-219 239.5,-219 239.5,-198 "
         id="polygon1151" />
      <text
         text-anchor="start"
         x="219"
         y="-204.8"
         font-family="'Times New Roman', serif"
         font-size="14px"
         id="text1153">x</text>
      <polygon
         fill="none"
         stroke="#000000"
         points="164.5,-177 164.5,-198 205.5,-198 205.5,-177 "
         id="polygon1155" />
      <text
         text-anchor="start"
         x="181.5"
         y="-183.8"
         font-family="'Times New Roman', serif"
         font-size="14px"
         id="text1157">3</text>
      <polygon
         fill="none"
         stroke="#000000"
         points="205.5,-177 205.5,-198 239.5,-198 239.5,-177 "
         id="polygon1159" />
      <text
         text-anchor="start"
         x="220.5"
         y="-183.8"
         font-family="'Times New Roman', serif"
         font-size="14px"
         id="text1161">t</text>
      <polygon
         fill="none"
         stroke="#000000"
         points="164.5,-156 164.5,-177 205.5,-177 205.5,-156 "
         id="polygon1163" />
      <text
         text-anchor="start"
         x="181.5"
         y="-162.8"
         font-family="'Times New Roman', serif"
         font-size="14px"
         id="text1165">4</text>
      <polygon
         fill="none"
         stroke="#000000"
         points="205.5,-156 205.5,-177 239.5,-177 239.5,-156 "
         id="polygon1167" />
      <text
         text-anchor="start"
         x="218.5"
         y="-162.8"
         font-family="'Times New Roman', serif"
         font-size="14px"
         id="text1169">o</text>
    </g>
    <!-- table3&#45;&gt;table4 -->
    <g
       id="edge2"
       class="edge">
      <title
         id="title1172">table3:pointer:c-&gt;table4:pointee</title>
      <path
         fill="none"
         stroke="#000000"
         d="m 96,-251 c 0,0 29.745,0 57.446,0"
         id="path1174" />
      <polygon
         fill="#000000"
         stroke="#000000"
         points="163.5,-251 153.5,-247.5 153.5,-254.5 "
         id="polygon1176" />
    </g>
  </g>
</svg>
