<?xml version="1.0" encoding="UTF-8" standalone="no"?>
<svg
   xmlns:dc="http://purl.org/dc/elements/1.1/"
   xmlns:cc="http://creativecommons.org/ns#"
   xmlns:rdf="http://www.w3.org/1999/02/22-rdf-syntax-ns#"
   xmlns:svg="http://www.w3.org/2000/svg"
   xmlns="http://www.w3.org/2000/svg"
   xmlns:sodipodi="http://sodipodi.sourceforge.net/DTD/sodipodi-0.dtd"
   xmlns:inkscape="http://www.inkscape.org/namespaces/inkscape"
   viewBox="0.00 0.00 1000.00 1100.00"
   version="1.1"
   id="svg977"
   sodipodi:docname="trpl04-02.svg"
   inkscape:version="1.0.2 (e86c8708, 2021-01-15)">
  <metadata
     id="metadata983">
    <rdf:RDF>
      <cc:Work
         rdf:about="">
        <dc:format>image/svg+xml</dc:format>
        <dc:type
           rdf:resource="http://purl.org/dc/dcmitype/StillImage" />
      </cc:Work>
    </rdf:RDF>
  </metadata>
  <defs
     id="defs981" />
  <sodipodi:namedview
     pagecolor="#ffffff"
     bordercolor="#666666"
     borderopacity="1"
     objecttolerance="10"
     gridtolerance="10"
     guidetolerance="10"
     inkscape:pageopacity="0"
     inkscape:pageshadow="2"
     inkscape:window-width="1792"
     inkscape:window-height="982"
     id="namedview979"
     showgrid="false"
     inkscape:zoom="0.66818182"
     inkscape:cx="500"
     inkscape:cy="550"
     inkscape:window-x="0"
     inkscape:window-y="25"
     inkscape:window-maximized="1"
     inkscape:current-layer="svg977" />
  <g
     id="graph0"
     class="graph"
     transform="matrix(3.9143024,0,0,4.0716478,17.65721,1011.7687)">
    <title
       id="title833">%3</title>
    <polygon
       fill="#ffffff"
       stroke="none"
       points="-4,4 -4,-248 251,-248 251,4 "
       id="polygon835" />
    <!-- table0 -->
    <g
       id="node1"
       class="node">
      <title
         id="title837">table0</title>
      <polyline
         fill="none"
         stroke="#000000"
         points="8,-218.5 112,-218.5 "
         id="polyline839" />
      <text
         text-anchor="start"
         x="53.5"
         y="-225.3"
         font-family="'Times New Roman', serif"
         font-size="14px"
         id="text841">s1</text>
      <polygon
         fill="none"
         stroke="#000000"
         points="8,-197.5 8,-218.5 78,-218.5 78,-197.5 "
         id="polygon843" />
      <text
         text-anchor="start"
         x="27.5"
         y="-204.3"
         font-family="'Times New Roman', serif"
         font-size="14px"
         id="text845">nome</text>
      <polygon
         fill="none"
         stroke="#000000"
         points="78,-197.5 78,-218.5 112,-218.5 112,-197.5 "
         id="polygon847" />
      <text
         text-anchor="start"
         x="81"
         y="-204.3"
         font-family="'Times New Roman', serif"
         font-size="14px"
         id="text849">valor</text>
      <polygon
         fill="none"
         stroke="#000000"
         points="8,-176.5 8,-197.5 78,-197.5 78,-176.5 "
         id="polygon851" />
      <text
         text-anchor="start"
         x="35"
         y="-183.3"
         font-family="'Times New Roman', serif"
         font-size="14px"
         id="text853">ptr</text>
      <polygon
         fill="none"
         stroke="#000000"
         points="78,-176.5 78,-197.5 112,-197.5 112,-176.5 "
         id="polygon855" />
      <polygon
         fill="none"
         stroke="#000000"
         points="8,-155.5 8,-176.5 78,-176.5 78,-155.5 "
         id="polygon857" />
      <text
         text-anchor="start"
         x="19"
         y="-162.3"
         font-family="'Times New Roman', serif"
         font-size="14px"
         id="text859">tamanho</text>
      <polygon
         fill="none"
         stroke="#000000"
         points="78,-155.5 78,-176.5 112,-176.5 112,-155.5 "
         id="polygon861" />
      <text
         text-anchor="start"
         x="91.5"
         y="-162.3"
         font-family="'Times New Roman', serif"
         font-size="14px"
         id="text863">5</text>
      <polygon
         fill="none"
         stroke="#000000"
         points="8,-134.5 8,-155.5 78,-155.5 78,-134.5 "
         id="polygon865" />
      <text
         text-anchor="start"
         x="11"
         y="-141.3"
         font-family="'Times New Roman', serif"
         font-size="14px"
         id="text867">capacidade</text>
      <polygon
         fill="none"
         stroke="#000000"
         points="78,-134.5 78,-155.5 112,-155.5 112,-134.5 "
         id="polygon869" />
      <text
         text-anchor="start"
         x="91.5"
         y="-141.3"
         font-family="'Times New Roman', serif"
         font-size="14px"
         id="text871">5</text>
    </g>
    <!-- table1 -->
    <g
       id="node3"
       class="node">
      <title
         id="title874">table1</title>
      <polygon
         fill="none"
         stroke="#000000"
         points="164.5,-130.5 164.5,-151.5 205.5,-151.5 205.5,-130.5 "
         id="polygon876" />
      <text
         text-anchor="start"
         x="167.5"
         y="-137.3"
         font-family="'Times New Roman', serif"
         font-size="14px"
         id="text878">índice</text>
      <polygon
         fill="none"
         stroke="#000000"
         points="205.5,-130.5 205.5,-151.5 239.5,-151.5 239.5,-130.5 "
         id="polygon880" />
      <text
         text-anchor="start"
         x="208.5"
         y="-137.3"
         font-family="'Times New Roman', serif"
         font-size="14px"
         id="text882">valor</text>
      <polygon
         fill="none"
         stroke="#000000"
         points="164.5,-109.5 164.5,-130.5 205.5,-130.5 205.5,-109.5 "
         id="polygon884" />
      <text
         text-anchor="start"
         x="181.5"
         y="-116.3"
         font-family="'Times New Roman', serif"
         font-size="14px"
         id="text886">0</text>
      <polygon
         fill="none"
         stroke="#000000"
         points="205.5,-109.5 205.5,-130.5 239.5,-130.5 239.5,-109.5 "
         id="polygon888" />
      <text
         text-anchor="start"
         x="220.5"
         y="-116.3"
         font-family="'Times New Roman', serif"
         font-size="14px"
         id="text890">t</text>
      <polygon
         fill="none"
         stroke="#000000"
         points="164.5,-88.5 164.5,-109.5 205.5,-109.5 205.5,-88.5 "
         id="polygon892" />
      <text
         text-anchor="start"
         x="181.5"
         y="-95.300003"
         font-family="'Times New Roman', serif"
         font-size="14px"
         id="text894">1</text>
      <polygon
         fill="none"
         stroke="#000000"
         points="205.5,-88.5 205.5,-109.5 239.5,-109.5 239.5,-88.5 "
         id="polygon896" />
      <text
         text-anchor="start"
         x="219"
         y="-95.300003"
         font-family="'Times New Roman', serif"
         font-size="14px"
         id="text898">e</text>
      <polygon
         fill="none"
         stroke="#000000"
         points="164.5,-67.5 164.5,-88.5 205.5,-88.5 205.5,-67.5 "
         id="polygon900" />
      <text
         text-anchor="start"
         x="181.5"
         y="-74.300003"
         font-family="'Times New Roman', serif"
         font-size="14px"
         id="text902">2</text>
      <polygon
         fill="none"
         stroke="#000000"
         points="205.5,-67.5 205.5,-88.5 239.5,-88.5 239.5,-67.5 "
         id="polygon904" />
      <text
         text-anchor="start"
         x="219"
         y="-74.300003"
         font-family="'Times New Roman', serif"
         font-size="14px"
         id="text906">x</text>
      <polygon
         fill="none"
         stroke="#000000"
         points="164.5,-46.5 164.5,-67.5 205.5,-67.5 205.5,-46.5 "
         id="polygon908" />
      <text
         text-anchor="start"
         x="181.5"
         y="-53.299999"
         font-family="'Times New Roman', serif"
         font-size="14px"
         id="text910">3</text>
      <polygon
         fill="none"
         stroke="#000000"
         points="205.5,-46.5 205.5,-67.5 239.5,-67.5 239.5,-46.5 "
         id="polygon912" />
      <text
         text-anchor="start"
         x="220.5"
         y="-53.299999"
         font-family="'Times New Roman', serif"
         font-size="14px"
         id="text914">t</text>
      <polygon
         fill="none"
         stroke="#000000"
         points="164.5,-25.5 164.5,-46.5 205.5,-46.5 205.5,-25.5 "
         id="polygon916" />
      <text
         text-anchor="start"
         x="181.5"
         y="-32.299999"
         font-family="'Times New Roman', serif"
         font-size="14px"
         id="text918">4</text>
      <polygon
         fill="none"
         stroke="#000000"
         points="205.5,-25.5 205.5,-46.5 239.5,-46.5 239.5,-25.5 "
         id="polygon920" />
      <text
         text-anchor="start"
         x="218.5"
         y="-32.299999"
         font-family="'Times New Roman', serif"
         font-size="14px"
         id="text922">o</text>
    </g>
    <!-- table0&#45;&gt;table1 -->
    <g
       id="edge1"
       class="edge">
      <title
         id="title925">table0:pointer:c-&gt;table1:pointee</title>
      <path
         fill="none"
         stroke="#000000"
         d="m 96,-186.5 c 0,0 21.524,55.616 57.511,64.74"
         id="path927" />
      <polygon
         fill="#000000"
         stroke="#000000"
         points="163.5,-120.5 153.141,-118.279 154.016,-125.224 "
         id="polygon929" />
    </g>
    <!-- table3 -->
    <g
       id="node2"
       class="node">
      <title
         id="title932">table3</title>
      <polyline
         fill="none"
         stroke="#000000"
         points="8,-87.5 112,-87.5 "
         id="polyline934" />
      <text
         text-anchor="start"
         x="53.5"
         y="-94.300003"
         font-family="'Times New Roman', serif"
         font-size="14px"
         id="text936">s2</text>
      <polygon
         fill="none"
         stroke="#000000"
         points="8,-66.5 8,-87.5 78,-87.5 78,-66.5 "
         id="polygon938" />
      <text
         text-anchor="start"
         x="27.5"
         y="-73.300003"
         font-family="'Times New Roman', serif"
         font-size="14px"
         id="text940">nome</text>
      <polygon
         fill="none"
         stroke="#000000"
         points="78,-66.5 78,-87.5 112,-87.5 112,-66.5 "
         id="polygon942" />
      <text
         text-anchor="start"
         x="81"
         y="-73.300003"
         font-family="'Times New Roman', serif"
         font-size="14px"
         id="text944">valor</text>
      <polygon
         fill="none"
         stroke="#000000"
         points="8,-45.5 8,-66.5 78,-66.5 78,-45.5 "
         id="polygon946" />
      <text
         text-anchor="start"
         x="35"
         y="-52.299999"
         font-family="'Times New Roman', serif"
         font-size="14px"
         id="text948">ptr</text>
      <polygon
         fill="none"
         stroke="#000000"
         points="78,-45.5 78,-66.5 112,-66.5 112,-45.5 "
         id="polygon950" />
      <polygon
         fill="none"
         stroke="#000000"
         points="8,-24.5 8,-45.5 78,-45.5 78,-24.5 "
         id="polygon952" />
      <text
         text-anchor="start"
         x="19"
         y="-31.299999"
         font-family="'Times New Roman', serif"
         font-size="14px"
         id="text954">tamanho</text>
      <polygon
         fill="none"
         stroke="#000000"
         points="78,-24.5 78,-45.5 112,-45.5 112,-24.5 "
         id="polygon956" />
      <text
         text-anchor="start"
         x="91.5"
         y="-31.299999"
         font-family="'Times New Roman', serif"
         font-size="14px"
         id="text958">5</text>
      <polygon
         fill="none"
         stroke="#000000"
         points="8,-3.5 8,-24.5 78,-24.5 78,-3.5 "
         id="polygon960" />
      <text
         text-anchor="start"
         x="11"
         y="-10.3"
         font-family="'Times New Roman', serif"
         font-size="14px"
         id="text962">capacidade</text>
      <polygon
         fill="none"
         stroke="#000000"
         points="78,-3.5 78,-24.5 112,-24.5 112,-3.5 "
         id="polygon964" />
      <text
         text-anchor="start"
         x="91.5"
         y="-10.3"
         font-family="'Times New Roman', serif"
         font-size="14px"
         id="text966">5</text>
    </g>
    <!-- table3&#45;&gt;table1 -->
    <g
       id="edge2"
       class="edge">
      <title
         id="title969">table3:pointer:c-&gt;table1:pointee</title>
      <path
         fill="none"
         stroke="#000000"
         d="m 96,-55.5 c 0,0 21.784,-54.773 57.575,-63.76"
         id="path971" />
      <polygon
         fill="#000000"
         stroke="#000000"
         points="163.5,-120.5 154.011,-115.787 153.143,-122.733 "
         id="polygon973" />
    </g>
  </g>
</svg>
