<?xml version="1.0" encoding="UTF-8" standalone="no"?>
<svg
   xmlns:dc="http://purl.org/dc/elements/1.1/"
   xmlns:cc="http://creativecommons.org/ns#"
   xmlns:rdf="http://www.w3.org/1999/02/22-rdf-syntax-ns#"
   xmlns:svg="http://www.w3.org/2000/svg"
   xmlns="http://www.w3.org/2000/svg"
   xmlns:sodipodi="http://sodipodi.sourceforge.net/DTD/sodipodi-0.dtd"
   xmlns:inkscape="http://www.inkscape.org/namespaces/inkscape"
   viewBox="0.00 0.00 1000.00 1100.00"
   version="1.1"
   id="svg1895"
   sodipodi:docname="trpl04-04.svg"
   inkscape:version="1.0.2 (e86c8708, 2021-01-15)">
  <metadata
     id="metadata1901">
    <rdf:RDF>
      <cc:Work
         rdf:about="">
        <dc:format>image/svg+xml</dc:format>
        <dc:type
           rdf:resource="http://purl.org/dc/dcmitype/StillImage" />
      </cc:Work>
    </rdf:RDF>
  </metadata>
  <defs
     id="defs1899" />
  <sodipodi:namedview
     pagecolor="#ffffff"
     bordercolor="#666666"
     borderopacity="1"
     objecttolerance="10"
     gridtolerance="10"
     guidetolerance="10"
     inkscape:pageopacity="0"
     inkscape:pageshadow="2"
     inkscape:window-width="1792"
     inkscape:window-height="982"
     id="namedview1897"
     showgrid="false"
     inkscape:zoom="0.66818182"
     inkscape:cx="500"
     inkscape:cy="550"
     inkscape:window-x="0"
     inkscape:window-y="25"
     inkscape:window-maximized="1"
     inkscape:current-layer="svg1895" />
  <g
     id="graph0"
     class="graph"
     transform="matrix(3.9143024,0,0,4.1191589,18.650407,1024.5446)">
    <title
       id="title1749">%3</title>
    <polygon
       fill="#ffffff"
       stroke="none"
       points="251,-248 251,4 -4,4 -4,-248 "
       id="polygon1751" />
    <!-- table0 -->
    <g
       id="node1"
       class="node">
      <title
         id="title1753">table0</title>
      <polygon
         fill="#808080"
         stroke="none"
         points="112,-240 112,-135 8,-135 8,-240 "
         id="polygon1755" />
      <polyline
         fill="none"
         stroke="#000000"
         points="8,-218.5 112,-218.5 "
         id="polyline1757" />
      <text
         text-anchor="start"
         x="53.5"
         y="-225.3"
         font-family="'Times New Roman', serif"
         font-size="14px"
         id="text1759">s1</text>
      <polygon
         fill="none"
         stroke="#000000"
         points="78,-218.5 78,-197.5 8,-197.5 8,-218.5 "
         id="polygon1761" />
      <text
         text-anchor="start"
         x="27.5"
         y="-204.3"
         font-family="'Times New Roman', serif"
         font-size="14px"
         id="text1763">nome</text>
      <polygon
         fill="none"
         stroke="#000000"
         points="112,-218.5 112,-197.5 78,-197.5 78,-218.5 "
         id="polygon1765" />
      <text
         text-anchor="start"
         x="81"
         y="-204.3"
         font-family="'Times New Roman', serif"
         font-size="14px"
         id="text1767">valor</text>
      <polygon
         fill="none"
         stroke="#000000"
         points="78,-197.5 78,-176.5 8,-176.5 8,-197.5 "
         id="polygon1769" />
      <text
         text-anchor="start"
         x="35"
         y="-183.3"
         font-family="'Times New Roman', serif"
         font-size="14px"
         id="text1771">ptr</text>
      <polygon
         fill="none"
         stroke="#000000"
         points="112,-197.5 112,-176.5 78,-176.5 78,-197.5 "
         id="polygon1773" />
      <polygon
         fill="none"
         stroke="#000000"
         points="78,-176.5 78,-155.5 8,-155.5 8,-176.5 "
         id="polygon1775" />
      <text
         text-anchor="start"
         x="19"
         y="-162.3"
         font-family="'Times New Roman', serif"
         font-size="14px"
         id="text1777">tamanho</text>
      <polygon
         fill="none"
         stroke="#000000"
         points="112,-176.5 112,-155.5 78,-155.5 78,-176.5 "
         id="polygon1779" />
      <text
         text-anchor="start"
         x="91.5"
         y="-162.3"
         font-family="'Times New Roman', serif"
         font-size="14px"
         id="text1781">5</text>
      <polygon
         fill="none"
         stroke="#000000"
         points="78,-155.5 78,-134.5 8,-134.5 8,-155.5 "
         id="polygon1783" />
      <text
         text-anchor="start"
         x="11"
         y="-141.3"
         font-family="'Times New Roman', serif"
         font-size="14px"
         id="text1785">capacidade</text>
      <polygon
         fill="none"
         stroke="#000000"
         points="112,-155.5 112,-134.5 78,-134.5 78,-155.5 "
         id="polygon1787" />
      <text
         text-anchor="start"
         x="91.5"
         y="-141.3"
         font-family="'Times New Roman', serif"
         font-size="14px"
         id="text1789">5</text>
    </g>
    <!-- table1 -->
    <g
       id="node3"
       class="node">
      <title
         id="title1792">table1</title>
      <polygon
         fill="none"
         stroke="#000000"
         points="205.5,-151.5 205.5,-130.5 164.5,-130.5 164.5,-151.5 "
         id="polygon1794" />
      <text
         text-anchor="start"
         x="167.5"
         y="-137.3"
         font-family="'Times New Roman', serif"
         font-size="14px"
         id="text1796">índice</text>
      <polygon
         fill="none"
         stroke="#000000"
         points="239.5,-151.5 239.5,-130.5 205.5,-130.5 205.5,-151.5 "
         id="polygon1798" />
      <text
         text-anchor="start"
         x="208.5"
         y="-137.3"
         font-family="'Times New Roman', serif"
         font-size="14px"
         id="text1800">valor</text>
      <polygon
         fill="none"
         stroke="#000000"
         points="205.5,-130.5 205.5,-109.5 164.5,-109.5 164.5,-130.5 "
         id="polygon1802" />
      <text
         text-anchor="start"
         x="181.5"
         y="-116.3"
         font-family="'Times New Roman', serif"
         font-size="14px"
         id="text1804">0</text>
      <polygon
         fill="none"
         stroke="#000000"
         points="239.5,-130.5 239.5,-109.5 205.5,-109.5 205.5,-130.5 "
         id="polygon1806" />
      <text
         text-anchor="start"
         x="220.5"
         y="-116.3"
         font-family="'Times New Roman', serif"
         font-size="14px"
         id="text1808">t</text>
      <polygon
         fill="none"
         stroke="#000000"
         points="205.5,-109.5 205.5,-88.5 164.5,-88.5 164.5,-109.5 "
         id="polygon1810" />
      <text
         text-anchor="start"
         x="181.5"
         y="-95.300003"
         font-family="'Times New Roman', serif"
         font-size="14px"
         id="text1812">1</text>
      <polygon
         fill="none"
         stroke="#000000"
         points="239.5,-109.5 239.5,-88.5 205.5,-88.5 205.5,-109.5 "
         id="polygon1814" />
      <text
         text-anchor="start"
         x="219"
         y="-95.300003"
         font-family="'Times New Roman', serif"
         font-size="14px"
         id="text1816">e</text>
      <polygon
         fill="none"
         stroke="#000000"
         points="205.5,-88.5 205.5,-67.5 164.5,-67.5 164.5,-88.5 "
         id="polygon1818" />
      <text
         text-anchor="start"
         x="181.5"
         y="-74.300003"
         font-family="'Times New Roman', serif"
         font-size="14px"
         id="text1820">2</text>
      <polygon
         fill="none"
         stroke="#000000"
         points="239.5,-88.5 239.5,-67.5 205.5,-67.5 205.5,-88.5 "
         id="polygon1822" />
      <text
         text-anchor="start"
         x="219"
         y="-74.300003"
         font-family="'Times New Roman', serif"
         font-size="14px"
         id="text1824">x</text>
      <polygon
         fill="none"
         stroke="#000000"
         points="205.5,-67.5 205.5,-46.5 164.5,-46.5 164.5,-67.5 "
         id="polygon1826" />
      <text
         text-anchor="start"
         x="181.5"
         y="-53.299999"
         font-family="'Times New Roman', serif"
         font-size="14px"
         id="text1828">3</text>
      <polygon
         fill="none"
         stroke="#000000"
         points="239.5,-67.5 239.5,-46.5 205.5,-46.5 205.5,-67.5 "
         id="polygon1830" />
      <text
         text-anchor="start"
         x="220.5"
         y="-53.299999"
         font-family="'Times New Roman', serif"
         font-size="14px"
         id="text1832">t</text>
      <polygon
         fill="none"
         stroke="#000000"
         points="205.5,-46.5 205.5,-25.5 164.5,-25.5 164.5,-46.5 "
         id="polygon1834" />
      <text
         text-anchor="start"
         x="181.5"
         y="-32.299999"
         font-family="'Times New Roman', serif"
         font-size="14px"
         id="text1836">4</text>
      <polygon
         fill="none"
         stroke="#000000"
         points="239.5,-46.5 239.5,-25.5 205.5,-25.5 205.5,-46.5 "
         id="polygon1838" />
      <text
         text-anchor="start"
         x="218.5"
         y="-32.299999"
         font-family="'Times New Roman', serif"
         font-size="14px"
         id="text1840">o</text>
    </g>
    <!-- table0&#45;&gt;table1 -->
    <g
       id="edge1"
       class="edge">
      <title
         id="title1843">table0:pointer:c-&gt;table1:pointee</title>
      <path
         fill="none"
         stroke="#000000"
         d="m 96,-186.5 c 0,0 21.524,55.616 57.511,64.74"
         id="path1845" />
      <polygon
         fill="#000000"
         stroke="#000000"
         points="153.141,-118.279 154.016,-125.224 163.5,-120.5 "
         id="polygon1847" />
    </g>
    <!-- table3 -->
    <g
       id="node2"
       class="node">
      <title
         id="title1850">table3</title>
      <polyline
         fill="none"
         stroke="#000000"
         points="8,-87.5 112,-87.5 "
         id="polyline1852" />
      <text
         text-anchor="start"
         x="53.5"
         y="-94.300003"
         font-family="'Times New Roman', serif"
         font-size="14px"
         id="text1854">s2</text>
      <polygon
         fill="none"
         stroke="#000000"
         points="78,-87.5 78,-66.5 8,-66.5 8,-87.5 "
         id="polygon1856" />
      <text
         text-anchor="start"
         x="27.5"
         y="-73.300003"
         font-family="'Times New Roman', serif"
         font-size="14px"
         id="text1858">nome</text>
      <polygon
         fill="none"
         stroke="#000000"
         points="112,-87.5 112,-66.5 78,-66.5 78,-87.5 "
         id="polygon1860" />
      <text
         text-anchor="start"
         x="81"
         y="-73.300003"
         font-family="'Times New Roman', serif"
         font-size="14px"
         id="text1862">valor</text>
      <polygon
         fill="none"
         stroke="#000000"
         points="78,-66.5 78,-45.5 8,-45.5 8,-66.5 "
         id="polygon1864" />
      <text
         text-anchor="start"
         x="35"
         y="-52.299999"
         font-family="'Times New Roman', serif"
         font-size="14px"
         id="text1866">ptr</text>
      <polygon
         fill="none"
         stroke="#000000"
         points="112,-66.5 112,-45.5 78,-45.5 78,-66.5 "
         id="polygon1868" />
      <polygon
         fill="none"
         stroke="#000000"
         points="78,-45.5 78,-24.5 8,-24.5 8,-45.5 "
         id="polygon1870" />
      <text
         text-anchor="start"
         x="19"
         y="-31.299999"
         font-family="'Times New Roman', serif"
         font-size="14px"
         id="text1872">tamanho</text>
      <polygon
         fill="none"
         stroke="#000000"
         points="112,-45.5 112,-24.5 78,-24.5 78,-45.5 "
         id="polygon1874" />
      <text
         text-anchor="start"
         x="91.5"
         y="-31.299999"
         font-family="'Times New Roman', serif"
         font-size="14px"
         id="text1876">5</text>
      <polygon
         fill="none"
         stroke="#000000"
         points="78,-24.5 78,-3.5 8,-3.5 8,-24.5 "
         id="polygon1878" />
      <text
         text-anchor="start"
         x="11"
         y="-10.3"
         font-family="'Times New Roman', serif"
         font-size="14px"
         id="text1880">capacidade</text>
      <polygon
         fill="none"
         stroke="#000000"
         points="112,-24.5 112,-3.5 78,-3.5 78,-24.5 "
         id="polygon1882" />
      <text
         text-anchor="start"
         x="91.5"
         y="-10.3"
         font-family="'Times New Roman', serif"
         font-size="14px"
         id="text1884">5</text>
    </g>
    <!-- table3&#45;&gt;table1 -->
    <g
       id="edge2"
       class="edge">
      <title
         id="title1887">table3:pointer:c-&gt;table1:pointee</title>
      <path
         fill="none"
         stroke="#000000"
         d="m 96,-55.5 c 0,0 21.784,-54.773 57.575,-63.76"
         id="path1889" />
      <polygon
         fill="#000000"
         stroke="#000000"
         points="154.011,-115.787 153.143,-122.733 163.5,-120.5 "
         id="polygon1891" />
    </g>
  </g>
</svg>
